<svg width="105" height="105" viewBox="0 0 105 105" fill="#a7aaad" xmlns="http://www.w3.org/2000/svg">
<path d="M52.5 0.000599674C38.5756 0.000599674 25.2219 5.53203 15.3776 15.3781C5.53146 25.2229 0 38.5766 0 52.5003C0 66.424 5.53146 79.7783 15.3776 89.6225C25.2225 99.4686 38.5762 105 52.5 105C66.4238 105 79.7781 99.4686 89.6224 89.6225C99.4685 79.7777 105 66.424 105 52.5003C105 43.2845 102.574 34.2308 97.9664 26.2502C93.3587 18.2695 86.7304 11.6416 78.7497 7.03354C70.769 2.42581 61.7152 0 52.4994 0L52.5 0.000599674ZM40.4777 38.2718L47.2499 45.0969V26.2496H57.7501V45.0969L64.5223 38.3246L71.9252 45.7275L52.5 65.1526L33.022 45.6747L40.4777 38.2718ZM78.7491 78.7511H26.2485V68.251H78.7491V78.7511Z" fill="#a7aaad"/>
</svg>
