
<svg xmlns="http://www.w3.org/2000/svg" version="1.1" width="92px" height="92px" style="shape-rendering:geometricPrecision; text-rendering:geometricPrecision; image-rendering:optimizeQuality; fill-rule:evenodd; clip-rule:evenodd" xmlns:xlink="http://www.w3.org/1999/xlink">
<g><path fill="#a7aaad" d="M 45.5,-0.5 C 46.1667,-0.5 46.8333,-0.5 47.5,-0.5C 53.2423,9.98318 58.7423,20.6498 64,31.5C 64.0397,28.8759 63.873,26.2093 63.5,23.5C 63.4123,21.2875 63.9123,19.2875 65,17.5C 71.6208,19.6552 78.2875,21.6552 85,23.5C 84.9678,25.5979 84.3011,27.5979 83,29.5C 78.0413,37.2496 73.208,45.083 68.5,53C 72.2994,51.7672 75.9661,49.9339 79.5,47.5C 82.426,54.5331 84.426,61.8664 85.5,69.5C 73.1655,68.9646 60.8321,68.7979 48.5,69C 52.3652,71.0947 56.0319,73.4281 59.5,76C 55.0091,81.3243 50.3424,86.491 45.5,91.5C 44.8333,91.5 44.1667,91.5 43.5,91.5C 38.0126,81.1936 32.5126,70.8602 27,60.5C 26.501,64.8206 26.3343,69.1539 26.5,73.5C 21.3991,72.8573 16.3991,71.6906 11.5,70C 8.74942,69.484 6.41609,68.3173 4.5,66.5C 10.5846,56.6623 16.918,46.9957 23.5,37.5C 23.3333,37.1667 23.1667,36.8333 23,36.5C 19.4924,39.3401 15.6591,41.1734 11.5,42C 9.1281,35.0115 7.46144,27.8448 6.5,20.5C 18.512,21.2289 30.512,21.7289 42.5,22C 38.5,19.6667 34.5,17.3333 30.5,15C 35.7031,9.96464 40.7031,4.79798 45.5,-0.5 Z M 44.5,23.5 C 50.9376,26.553 57.2709,29.8863 63.5,33.5C 64.1826,40.7231 64.8493,47.8898 65.5,55C 59.2067,59.3897 53.04,63.8897 47,68.5C 40.581,64.7067 34.081,61.04 27.5,57.5C 26.8181,49.943 26.1514,42.443 25.5,35C 32.0044,31.3034 38.3378,27.4701 44.5,23.5 Z"/></g>
</svg>
