<svg width="50" height="39" viewBox="0 0 50 39" fill="#a7aaad" xmlns="http://www.w3.org/2000/svg">
<path d="M19.1429 5C8.57023 5 0 12.0867 0 21.4841C0 30.8816 8.57023 37.9683 19.1429 37.9683C23.3556 37.9683 27.2482 37.2875 30.4098 35.2377L38.2857 38.5L35.1189 30.855C37.1186 28.1672 38.2857 24.9473 38.2857 21.4841C38.2857 12.0867 29.7155 5 19.1429 5ZM11.8046 27.8651V25.7381C11.8046 25.7381 13.9316 24.7838 13.9316 23.6111C11.582 23.6111 9.67763 21.7067 9.67763 19.3571C9.67763 17.0076 11.582 15.1032 13.9316 15.1032C16.2812 15.1032 18.1856 17.0076 18.1856 19.3571C18.1856 23.6111 14.9951 27.8651 11.8046 27.8651ZM22.2268 27.8651V25.7381C22.2268 25.7381 24.3538 24.7838 24.3538 23.6111C22.0043 23.6111 20.0998 21.7067 20.0998 19.3571C20.0998 17.0076 22.0043 15.1032 24.3538 15.1032C26.7034 15.1032 28.6078 17.0076 28.6078 19.3571C28.6078 23.6111 25.4173 27.8651 22.2268 27.8651Z" fill="#a7aaad"/>
<path d="M43.7042 18.7918L43.7042 18.7919C44.2846 19.1107 44.9977 19.0614 45.529 18.6555C46.05 18.2593 46.2913 17.6076 46.1885 16.9815C46.1885 16.9814 46.1885 16.9813 46.1885 16.9812C46.1884 16.9811 46.1884 16.981 46.1884 16.9809L45.471 12.6033L48.5028 9.50999C48.5029 9.5099 48.503 9.5098 48.5031 9.5097C48.9578 9.04597 49.109 8.36905 48.921 7.76279L48.9206 7.7616C48.7301 7.15037 48.2132 6.67269 47.5525 6.57114L47.5509 6.5709L43.3979 5.93948L41.5314 1.98213C41.5313 1.98194 41.5312 1.98175 41.5311 1.98156C41.2548 1.39528 40.6682 1 39.9984 1C39.3251 1 38.7413 1.39988 38.4668 1.981L38.4664 1.98178L36.6009 5.93955L32.449 6.5712L32.4485 6.57127C31.7857 6.67246 31.2701 7.15186 31.0797 7.76103L31.0791 7.76305C30.8912 8.36874 31.0418 9.04603 31.4968 9.5099C31.4968 9.50992 31.4969 9.50993 31.4969 9.50995C31.4971 9.51021 31.4974 9.51047 31.4976 9.51073L34.5283 12.6036L33.8115 16.9812C33.8115 16.9814 33.8115 16.9816 33.8114 16.9818C33.8114 16.9819 33.8114 16.9819 33.8114 16.9819C33.7087 17.608 33.9497 18.2595 34.4711 18.656C34.7709 18.8847 35.1294 19 35.4885 19C35.765 19 36.0436 18.9317 36.2971 18.7916C36.2977 18.7913 36.2983 18.791 36.2989 18.7906L39.9986 16.7555L43.7042 18.7918Z" fill="#a7aaad" stroke="white" stroke-width="2"/>
</svg>
